<?xml version="1.0" encoding="utf-8"?>
<!-- Generator: Adobe Illustrator 23.0.5, SVG Export Plug-In . SVG Version: 6.00 Build 0)  -->
<svg version="1.1" id="Layer_1" xmlns="http://www.w3.org/2000/svg" xmlns:xlink="http://www.w3.org/1999/xlink" x="0px" y="0px"
	 viewBox="0 0 85 36" style="enable-background:new 0 0 85 36;" xml:space="preserve">
<style type="text/css">
	.st0{fill:#560DCB;}
</style>
<g>
	<path class="st0" d="M17.1,9.5v11.7h-3.8v-1.9c-0.5,0.8-1.1,1.4-1.8,1.8s-1.5,0.6-2.4,0.6c-1.6,0-2.8-0.6-3.7-1.7
		C4.5,18.8,4,17.3,4,15.4c0-1.9,0.5-3.4,1.5-4.5c1-1.1,2.3-1.7,3.9-1.7c0.9,0,1.6,0.2,2.3,0.6s1.2,1,1.6,1.7V9.5H17.1z M13.5,15.3
		c0-0.9-0.2-1.6-0.7-2.2c-0.5-0.5-1.2-0.8-2-0.8c-0.8,0-1.5,0.3-2,0.8c-0.5,0.5-0.7,1.3-0.7,2.2c0,0.9,0.2,1.6,0.7,2.2
		c0.5,0.5,1.1,0.8,2,0.8c0.8,0,1.5-0.3,2-0.8C13.3,17,13.5,16.3,13.5,15.3z"/>
	<path class="st0" d="M20.2,5.9c0-0.6,0.2-1.2,0.7-1.6c0.4-0.4,1-0.7,1.6-0.7c0.6,0,1.2,0.2,1.6,0.6c0.4,0.4,0.7,1,0.7,1.6
		S24.5,7.1,24,7.5c-0.4,0.4-1,0.7-1.6,0.7c-0.6,0-1.2-0.2-1.6-0.7C20.4,7,20.2,6.5,20.2,5.9z M20.4,21.2V9.5h4.1v11.7H20.4z"/>
	<path class="st0" d="M39.8,16.2h-8.9c0,0.9,0.2,1.6,0.7,2.1c0.5,0.5,1.1,0.7,1.9,0.7c0.6,0,1.2-0.1,1.6-0.4c0.4-0.2,0.8-0.6,1-1
		l3.1,1.3c-0.4,0.9-1,1.6-2,2.1c-0.9,0.5-2.1,0.7-3.5,0.7c-2,0-3.7-0.6-4.9-1.7c-1.2-1.1-1.8-2.6-1.8-4.5c0-1.8,0.6-3.3,1.8-4.5
		c1.2-1.2,2.8-1.8,4.7-1.8c1.9,0,3.5,0.6,4.6,1.8c1.1,1.2,1.7,2.9,1.7,5V16.2z M35.7,13.9c-0.1-0.7-0.3-1.2-0.8-1.6
		c-0.4-0.4-1-0.6-1.6-0.6c-0.7,0-1.2,0.2-1.6,0.5c-0.4,0.4-0.7,0.9-0.8,1.6H35.7z"/>
	<path class="st0" d="M54.7,3.3v17.9h-3.8v-1.9c-0.5,0.8-1.1,1.4-1.8,1.8c-0.7,0.4-1.4,0.6-2.2,0.6c-1.6,0-3-0.6-3.9-1.7
		c-1-1.1-1.5-2.7-1.5-4.6c0-1.9,0.5-3.4,1.5-4.5c1-1.1,2.2-1.7,3.8-1.7c1,0,1.8,0.2,2.4,0.5c0.6,0.4,1.2,0.9,1.7,1.8
		c0-0.3-0.1-0.6-0.1-0.9c0-0.4,0-0.7,0-1.1V3.3H54.7z M51.1,15.4c0-0.9-0.2-1.6-0.7-2.2c-0.5-0.5-1.1-0.8-2-0.8
		c-0.8,0-1.5,0.3-2,0.8c-0.5,0.5-0.7,1.2-0.7,2.2c0,0.9,0.2,1.6,0.7,2.2s1.1,0.8,2,0.8c0.8,0,1.5-0.3,2-0.8
		C50.8,17,51.1,16.3,51.1,15.4z"/>
	<path class="st0" d="M69.8,9.5v6c0,1.3-0.1,2.3-0.3,2.9c-0.2,0.6-0.6,1.2-1.1,1.7c-0.5,0.5-1.2,0.9-1.9,1.2
		c-0.8,0.3-1.7,0.4-2.7,0.4c-1,0-1.9-0.1-2.7-0.4c-0.8-0.3-1.4-0.6-2-1.2c-0.5-0.5-0.9-1-1.1-1.7c-0.2-0.6-0.3-1.6-0.3-2.9v-6h3.9
		v6.2c0,1,0.2,1.7,0.5,2.1c0.3,0.4,0.8,0.7,1.6,0.7c0.7,0,1.3-0.2,1.6-0.6c0.3-0.4,0.5-1.1,0.5-2.1V9.5H69.8z"/>
	<path class="st0" d="M71.6,20.2l0.9-3.1c0.6,0.5,1.3,0.9,2,1.2c0.7,0.3,1.4,0.4,2.2,0.4c0.5,0,0.9-0.1,1.2-0.2
		c0.3-0.2,0.4-0.4,0.4-0.7c0-0.5-0.5-0.9-1.6-1.2c-0.4-0.1-0.6-0.2-0.9-0.2c-1.2-0.3-2.1-0.8-2.7-1.3c-0.6-0.6-0.8-1.3-0.8-2.1
		c0-1.1,0.4-2,1.3-2.7c0.9-0.7,2-1,3.5-1c0.7,0,1.5,0.1,2.3,0.3c0.8,0.2,1.6,0.4,2.4,0.8L80.8,13c-0.5-0.4-1.1-0.7-1.7-0.8
		c-0.6-0.2-1.1-0.3-1.7-0.3c-0.5,0-0.8,0.1-1.1,0.2c-0.2,0.1-0.4,0.4-0.4,0.6c0,0.4,0.5,0.8,1.6,1.1c0.2,0.1,0.4,0.1,0.6,0.2
		c1.4,0.4,2.4,0.9,3,1.4c0.6,0.6,0.8,1.3,0.8,2.2c0,1.2-0.5,2.2-1.4,2.9c-0.9,0.7-2.1,1.1-3.6,1.1c-1,0-2-0.1-2.9-0.4
		C73.2,21.1,72.4,20.7,71.6,20.2z"/>
</g>
</svg>
